<svg xmlns="http://www.w3.org/2000/svg" viewBox="0 0 64 64" fill="none" role="img" aria-label="Prometheus">
  <defs>
    <linearGradient id="g" x1="8" y1="4" x2="56" y2="60" gradientUnits="userSpaceOnUse">
      <stop stop-color="#4ade80"/>
      <stop offset="1" stop-color="#15803d"/>
    </linearGradient>
    <linearGradient id="g2" x1="20" y1="12" x2="44" y2="52" gradientUnits="userSpaceOnUse">
      <stop stop-color="#ffffff" stop-opacity="0.95"/>
      <stop offset="1" stop-color="#dcfce7"/>
    </linearGradient>
  </defs>
  <rect width="64" height="64" rx="16" fill="url(#g)"/>
  <path
    d="M32 12c-2.2 0-4 1.8-4 4v6.2c-6.8 1.2-12 7-12 14.1 0 7.8 6.3 14.1 14.1 14.1S44.1 44.1 44.1 36.3c0-7.1-5.2-12.9-12-14.1V16c0-2.2-1.8-4-4-4Z"
    fill="url(#g2)"
    opacity="0.95"
  />
  <path
    d="M32 22.5c4.8 0 8.7 3.9 8.7 8.7 0 3.1-1.6 5.8-4 7.3V44h-9.4v-5.5a8.66 8.66 0 0 1-4-7.3c0-4.8 3.9-8.7 8.7-8.7Z"
    fill="#14532d"
    fill-opacity="0.85"
  />
  <circle cx="32" cy="31" r="2.8" fill="#ffffff"/>
</svg>
